G04 PROTEUS GERBER X2 FILE*
%TF.GenerationSoftware,Labcenter,Proteus,8.12-SP0-Build30713*%
%TF.CreationDate,2022-01-23T14:34:13+00:00*%
%TF.FileFunction,AssemblyDrawing,Top*%
%TF.FilePolarity,Positive*%
%TF.Part,Single*%
%TF.SameCoordinates,{31d8c894-68c1-4210-9226-32e75d25b3a7}*%
%FSLAX45Y45*%
%MOMM*%
G01*
%TA.AperFunction,Material*%
%ADD18C,0.203200*%
%ADD25C,0.508000*%
%ADD26C,0.507080*%
%ADD27C,1.219200*%
%ADD28C,0.314280*%
%ADD29C,0.501220*%
%ADD72C,0.331890*%
%ADD73C,0.711200*%
%ADD30C,0.110230*%
%ADD31C,0.111760*%
%ADD32C,0.549750*%
%ADD33C,0.812800*%
%ADD34C,0.237060*%
%ADD35C,0.192750*%
%TD.AperFunction*%
D18*
X-4539660Y+4198500D02*
X-1090340Y+4198500D01*
X-1090340Y+5087500D01*
X-4539660Y+5087500D01*
X-4539660Y+4198500D01*
D25*
X-4468000Y+4262000D02*
X-4468000Y+4262000D01*
D26*
X-3222846Y+4795126D02*
X-3222846Y+4541583D01*
X-3165799Y+4490875D01*
X-2937611Y+4490875D01*
X-2880564Y+4541583D01*
X-2880564Y+4795126D01*
X-2652376Y+4693709D02*
X-2538282Y+4795126D01*
X-2538282Y+4490875D01*
D18*
X-3137160Y+2436500D02*
X-1084840Y+2436500D01*
X-1084840Y+3325500D01*
X-3137160Y+3325500D01*
X-3137160Y+2436500D01*
D25*
X-3000000Y+2500000D02*
X-3000000Y+2500000D01*
D26*
X-2486096Y+3033126D02*
X-2486096Y+2779583D01*
X-2429049Y+2728875D01*
X-2200861Y+2728875D01*
X-2143814Y+2779583D01*
X-2143814Y+3033126D01*
X-1972673Y+2982417D02*
X-1915626Y+3033126D01*
X-1744485Y+3033126D01*
X-1687438Y+2982417D01*
X-1687438Y+2931709D01*
X-1744485Y+2881000D01*
X-1915626Y+2881000D01*
X-1972673Y+2830292D01*
X-1972673Y+2728875D01*
X-1687438Y+2728875D01*
D18*
X-3387160Y+5936500D02*
X-1334840Y+5936500D01*
X-1334840Y+6825500D01*
X-3387160Y+6825500D01*
X-3387160Y+5936500D01*
D25*
X-3250000Y+6000000D02*
X-3250000Y+6000000D01*
D26*
X-2736096Y+6533126D02*
X-2736096Y+6279583D01*
X-2679049Y+6228875D01*
X-2450861Y+6228875D01*
X-2393814Y+6279583D01*
X-2393814Y+6533126D01*
X-2222673Y+6482417D02*
X-2165626Y+6533126D01*
X-1994485Y+6533126D01*
X-1937438Y+6482417D01*
X-1937438Y+6431709D01*
X-1994485Y+6381000D01*
X-1937438Y+6330292D01*
X-1937438Y+6279583D01*
X-1994485Y+6228875D01*
X-2165626Y+6228875D01*
X-2222673Y+6279583D01*
X-2108579Y+6381000D02*
X-1994485Y+6381000D01*
D18*
X-7518160Y+6235840D02*
X-6481840Y+6235840D01*
X-6481840Y+7272160D01*
X-7518160Y+7272160D01*
X-7518160Y+6235840D01*
D27*
X-7000000Y+6500000D02*
X-7000000Y+6500000D01*
D28*
X-7070714Y+7010844D02*
X-7247497Y+7010844D01*
X-7247497Y+6947988D01*
X-7106070Y+6947988D01*
X-7070714Y+6916560D01*
X-7070714Y+6853703D01*
X-7106070Y+6822275D01*
X-7212140Y+6822275D01*
X-7247497Y+6853703D01*
X-7000000Y+7010844D02*
X-7000000Y+6916560D01*
X-6893931Y+6822275D01*
X-6787861Y+6916560D01*
X-6787861Y+7010844D01*
D18*
X-768160Y+1735840D02*
X+268160Y+1735840D01*
X+268160Y+3788160D01*
X-768160Y+3788160D01*
X-768160Y+1735840D01*
D27*
X-250000Y+2000000D02*
X-250000Y+2000000D01*
D29*
X-400367Y+3037336D02*
X-99632Y+2699009D01*
X-400367Y+2699009D02*
X-250000Y+2868172D01*
D18*
X-768160Y+5235840D02*
X+268160Y+5235840D01*
X+268160Y+7288160D01*
X-768160Y+7288160D01*
X-768160Y+5235840D01*
D27*
X-250000Y+5500000D02*
X-250000Y+5500000D01*
D29*
X-400367Y+6199009D02*
X-99632Y+6537336D01*
X-99632Y+6199009D02*
X-400367Y+6537336D01*
D18*
X-768160Y+3735840D02*
X+268160Y+3735840D01*
X+268160Y+5280160D01*
X-768160Y+5280160D01*
X-768160Y+3735840D01*
D27*
X-250000Y+4000000D02*
X-250000Y+4000000D01*
D72*
X-349568Y+4521209D02*
X-349568Y+4745236D01*
X-150432Y+4521209D01*
X-150432Y+4745236D01*
D18*
X-4088900Y+2161100D02*
X-3911100Y+2161100D01*
X-3911100Y+3354900D01*
X-4088900Y+3354900D01*
X-4088900Y+2161100D01*
D73*
X-4000000Y+2250000D02*
X-4000000Y+2250000D01*
D30*
X-3966929Y+2721018D02*
X-4033070Y+2721018D01*
X-4033070Y+2783025D01*
X-4022047Y+2795427D01*
X-4011023Y+2795427D01*
X-4000000Y+2783025D01*
X-4000000Y+2721018D01*
X-4000000Y+2783025D02*
X-3988976Y+2795427D01*
X-3966929Y+2795427D01*
X-4011023Y+2845033D02*
X-4033070Y+2869836D01*
X-3966929Y+2869836D01*
D18*
X-4588900Y+2161100D02*
X-4411100Y+2161100D01*
X-4411100Y+3354900D01*
X-4588900Y+3354900D01*
X-4588900Y+2161100D01*
D73*
X-4500000Y+2250000D02*
X-4500000Y+2250000D01*
D30*
X-4466929Y+2721018D02*
X-4533070Y+2721018D01*
X-4533070Y+2783025D01*
X-4522047Y+2795427D01*
X-4511023Y+2795427D01*
X-4500000Y+2783025D01*
X-4500000Y+2721018D01*
X-4500000Y+2783025D02*
X-4488976Y+2795427D01*
X-4466929Y+2795427D01*
X-4522047Y+2832631D02*
X-4533070Y+2845033D01*
X-4533070Y+2882237D01*
X-4522047Y+2894639D01*
X-4511023Y+2894639D01*
X-4500000Y+2882237D01*
X-4500000Y+2845033D01*
X-4488976Y+2832631D01*
X-4466929Y+2832631D01*
X-4466929Y+2894639D01*
D18*
X-5088900Y+2161100D02*
X-4911100Y+2161100D01*
X-4911100Y+3354900D01*
X-5088900Y+3354900D01*
X-5088900Y+2161100D01*
D73*
X-5000000Y+2250000D02*
X-5000000Y+2250000D01*
D30*
X-4966929Y+2721018D02*
X-5033070Y+2721018D01*
X-5033070Y+2783025D01*
X-5022047Y+2795427D01*
X-5011023Y+2795427D01*
X-5000000Y+2783025D01*
X-5000000Y+2721018D01*
X-5000000Y+2783025D02*
X-4988976Y+2795427D01*
X-4966929Y+2795427D01*
X-5022047Y+2832631D02*
X-5033070Y+2845033D01*
X-5033070Y+2882237D01*
X-5022047Y+2894639D01*
X-5011023Y+2894639D01*
X-5000000Y+2882237D01*
X-4988976Y+2894639D01*
X-4977952Y+2894639D01*
X-4966929Y+2882237D01*
X-4966929Y+2845033D01*
X-4977952Y+2832631D01*
X-5000000Y+2857434D02*
X-5000000Y+2882237D01*
D18*
X-5588900Y+2161100D02*
X-5411100Y+2161100D01*
X-5411100Y+3354900D01*
X-5588900Y+3354900D01*
X-5588900Y+2161100D01*
D73*
X-5500000Y+2250000D02*
X-5500000Y+2250000D01*
D30*
X-5466929Y+2721018D02*
X-5533070Y+2721018D01*
X-5533070Y+2783025D01*
X-5522047Y+2795427D01*
X-5511023Y+2795427D01*
X-5500000Y+2783025D01*
X-5500000Y+2721018D01*
X-5500000Y+2783025D02*
X-5488976Y+2795427D01*
X-5466929Y+2795427D01*
X-5488976Y+2894639D02*
X-5488976Y+2820230D01*
X-5533070Y+2869836D01*
X-5466929Y+2869836D01*
D18*
X-4137160Y+6112840D02*
X-3862840Y+6112840D01*
X-3862840Y+6641160D01*
X-4137160Y+6641160D01*
X-4137160Y+6112840D01*
D73*
X-4000000Y+6250000D02*
X-4000000Y+6250000D01*
D31*
X-3977648Y+6438214D02*
X-3966472Y+6425641D01*
X-3966472Y+6387922D01*
X-3988824Y+6362776D01*
X-4011176Y+6362776D01*
X-4033528Y+6387922D01*
X-4033528Y+6425641D01*
X-4022352Y+6438214D01*
X-4011176Y+6488506D02*
X-4033528Y+6513652D01*
X-3966472Y+6513652D01*
D18*
X-4887160Y+6112840D02*
X-4612840Y+6112840D01*
X-4612840Y+6641160D01*
X-4887160Y+6641160D01*
X-4887160Y+6112840D01*
D73*
X-4750000Y+6250000D02*
X-4750000Y+6250000D01*
D31*
X-4727648Y+6438214D02*
X-4716472Y+6425641D01*
X-4716472Y+6387922D01*
X-4738824Y+6362776D01*
X-4761176Y+6362776D01*
X-4783528Y+6387922D01*
X-4783528Y+6425641D01*
X-4772352Y+6438214D01*
X-4772352Y+6475933D02*
X-4783528Y+6488506D01*
X-4783528Y+6526225D01*
X-4772352Y+6538798D01*
X-4761176Y+6538798D01*
X-4750000Y+6526225D01*
X-4750000Y+6488506D01*
X-4738824Y+6475933D01*
X-4716472Y+6475933D01*
X-4716472Y+6538798D01*
D18*
X-5637160Y+6112840D02*
X-5362840Y+6112840D01*
X-5362840Y+6641160D01*
X-5637160Y+6641160D01*
X-5637160Y+6112840D01*
D73*
X-5500000Y+6250000D02*
X-5500000Y+6250000D01*
D31*
X-5477648Y+6438214D02*
X-5466472Y+6425641D01*
X-5466472Y+6387922D01*
X-5488824Y+6362776D01*
X-5511176Y+6362776D01*
X-5533528Y+6387922D01*
X-5533528Y+6425641D01*
X-5522352Y+6438214D01*
X-5522352Y+6475933D02*
X-5533528Y+6488506D01*
X-5533528Y+6526225D01*
X-5522352Y+6538798D01*
X-5511176Y+6538798D01*
X-5500000Y+6526225D01*
X-5488824Y+6538798D01*
X-5477648Y+6538798D01*
X-5466472Y+6526225D01*
X-5466472Y+6488506D01*
X-5477648Y+6475933D01*
X-5500000Y+6501079D02*
X-5500000Y+6526225D01*
D18*
X-7649160Y+1634880D02*
X-6432500Y+1634880D01*
X-6432500Y+4855600D01*
X-7649160Y+4855600D01*
X-7649160Y+1634880D01*
D73*
X-6623000Y+2701680D02*
X-6623000Y+2701680D01*
D32*
X-7098884Y+2750459D02*
X-7043909Y+2750459D01*
X-6988933Y+2812306D01*
X-6988933Y+3059697D01*
X-7043909Y+3121544D01*
X-7318787Y+3121544D01*
X-7208836Y+3368935D02*
X-7318787Y+3492630D01*
X-6988933Y+3492630D01*
D18*
X-5514160Y+4227840D02*
X-4985840Y+4227840D01*
X-4985840Y+5264160D01*
X-5514160Y+5264160D01*
X-5514160Y+4227840D01*
D33*
X-5250000Y+5000000D02*
X-5250000Y+5000000D01*
D34*
X-5321119Y+4380241D02*
X-5178880Y+4540260D01*
X-5178880Y+4380241D02*
X-5321119Y+4540260D01*
X-5273706Y+4646939D02*
X-5321119Y+4700279D01*
X-5178880Y+4700279D01*
D18*
X-7518160Y+4977840D02*
X-6481840Y+4977840D01*
X-6481840Y+6014160D01*
X-7518160Y+6014160D01*
X-7518160Y+4977840D01*
D27*
X-7000000Y+5242000D02*
X-7000000Y+5242000D01*
D35*
X-7433687Y+5600735D02*
X-7433687Y+5716385D01*
X-7325266Y+5716385D01*
X-7303581Y+5697110D01*
X-7303581Y+5677835D01*
X-7325266Y+5658560D01*
X-7433687Y+5658560D01*
X-7325266Y+5658560D02*
X-7303581Y+5639285D01*
X-7303581Y+5600735D01*
X-7130106Y+5600735D02*
X-7260212Y+5600735D01*
X-7260212Y+5716385D01*
X-7130106Y+5716385D01*
X-7260212Y+5658560D02*
X-7173475Y+5658560D01*
X-7086737Y+5620010D02*
X-7065053Y+5600735D01*
X-6978316Y+5600735D01*
X-6956631Y+5620010D01*
X-6956631Y+5639285D01*
X-6978316Y+5658560D01*
X-7065053Y+5658560D01*
X-7086737Y+5677835D01*
X-7086737Y+5697110D01*
X-7065053Y+5716385D01*
X-6978316Y+5716385D01*
X-6956631Y+5697110D01*
X-6783156Y+5600735D02*
X-6913262Y+5600735D01*
X-6913262Y+5716385D01*
X-6783156Y+5716385D01*
X-6913262Y+5658560D02*
X-6826525Y+5658560D01*
X-6739787Y+5716385D02*
X-6609681Y+5716385D01*
X-6674734Y+5716385D02*
X-6674734Y+5600735D01*
M02*
