G04 PROTEUS GERBER X2 FILE*
%TF.GenerationSoftware,Labcenter,Proteus,8.12-SP0-Build30713*%
%TF.CreationDate,2022-01-23T14:34:13+00:00*%
%TF.FileFunction,Copper,L1,Top*%
%TF.FilePolarity,Positive*%
%TF.Part,Single*%
%TF.SameCoordinates,{31d8c894-68c1-4210-9226-32e75d25b3a7}*%
%FSLAX45Y45*%
%MOMM*%
G01*
%TA.AperFunction,Conductor*%
%ADD10C,0.508000*%
%TA.AperFunction,ComponentPad*%
%ADD11R,1.270000X1.270000*%
%ADD12C,1.270000*%
%TA.AperFunction,ComponentPad*%
%ADD13C,3.048000*%
%ADD14C,1.778000*%
%TA.AperFunction,ComponentPad*%
%ADD15R,1.778000X1.778000*%
%ADD16C,6.350000*%
%TA.AperFunction,ComponentPad*%
%ADD17C,2.032000*%
%TD.AperFunction*%
D10*
X-5500000Y+3266000D02*
X-5776180Y+3542180D01*
X-6128099Y+3542180D01*
X-6484041Y+3898122D01*
X-6484041Y+3909513D01*
X-6519899Y+3945371D01*
X-6661747Y+3945371D01*
X-6842966Y+3945371D01*
X-7022224Y+3766113D01*
X-7022224Y+3258384D01*
X-6877000Y+3113160D01*
X-6623000Y+3524640D02*
X-6478346Y+3379986D01*
X-6478346Y+2591105D01*
X-6515364Y+2554087D01*
X-6876999Y+2554087D01*
X-7039309Y+2716397D01*
X-6916866Y+2838840D01*
X-6877000Y+2838840D01*
D11*
X-4468000Y+4262000D03*
D12*
X-4214000Y+4262000D03*
X-3960000Y+4262000D03*
X-3706000Y+4262000D03*
X-3452000Y+4262000D03*
X-3198000Y+4262000D03*
X-2944000Y+4262000D03*
X-2690000Y+4262000D03*
X-2436000Y+4262000D03*
X-2182000Y+4262000D03*
X-1928000Y+4262000D03*
X-1674000Y+4262000D03*
X-1420000Y+4262000D03*
X-1166000Y+4262000D03*
X-1166000Y+5024000D03*
X-1420000Y+5024000D03*
X-1674000Y+5024000D03*
X-1928000Y+5024000D03*
X-2182000Y+5024000D03*
X-2436000Y+5024000D03*
X-2690000Y+5024000D03*
X-2944000Y+5024000D03*
X-3198000Y+5024000D03*
X-3452000Y+5024000D03*
X-3706000Y+5024000D03*
X-3960000Y+5024000D03*
X-4214000Y+5024000D03*
X-4466000Y+5024000D03*
D11*
X-3000000Y+2500000D03*
D12*
X-2746000Y+2500000D03*
X-2492000Y+2500000D03*
X-2238000Y+2500000D03*
X-1984000Y+2500000D03*
X-1730000Y+2500000D03*
X-1476000Y+2500000D03*
X-1222000Y+2500000D03*
X-1222000Y+3262000D03*
X-1476000Y+3262000D03*
X-1730000Y+3262000D03*
X-1984000Y+3262000D03*
X-2238000Y+3262000D03*
X-2492000Y+3262000D03*
X-2746000Y+3262000D03*
X-3000000Y+3262000D03*
D11*
X-3250000Y+6000000D03*
D12*
X-2996000Y+6000000D03*
X-2742000Y+6000000D03*
X-2488000Y+6000000D03*
X-2234000Y+6000000D03*
X-1980000Y+6000000D03*
X-1726000Y+6000000D03*
X-1472000Y+6000000D03*
X-1472000Y+6762000D03*
X-1726000Y+6762000D03*
X-1980000Y+6762000D03*
X-2234000Y+6762000D03*
X-2488000Y+6762000D03*
X-2742000Y+6762000D03*
X-2996000Y+6762000D03*
X-3250000Y+6762000D03*
D13*
X-7000000Y+6500000D03*
X-7000000Y+7008000D03*
X-250000Y+2000000D03*
X-250000Y+2508000D03*
X-250000Y+3016000D03*
X-250000Y+3524000D03*
X-250000Y+5500000D03*
X-250000Y+6008000D03*
X-250000Y+6516000D03*
X-250000Y+7024000D03*
X-250000Y+4000000D03*
X-250000Y+4508000D03*
X-250000Y+5016000D03*
D14*
X-4000000Y+2250000D03*
X-4000000Y+3266000D03*
X-4500000Y+2250000D03*
X-4500000Y+3266000D03*
X-5000000Y+2250000D03*
X-5000000Y+3266000D03*
X-5500000Y+2250000D03*
X-5500000Y+3266000D03*
X-4000000Y+6250000D03*
X-4000000Y+6504000D03*
X-4750000Y+6250000D03*
X-4750000Y+6504000D03*
X-5500000Y+6250000D03*
X-5500000Y+6504000D03*
D15*
X-6623000Y+2701680D03*
X-6623000Y+2976000D03*
X-6623000Y+3250320D03*
X-6623000Y+3524640D03*
X-6623000Y+3798960D03*
X-6877000Y+2838840D03*
X-6877000Y+3113160D03*
X-6877000Y+3387480D03*
X-6877000Y+3661800D03*
D16*
X-6750000Y+2000640D03*
X-6750000Y+4500000D03*
D17*
X-5250000Y+5000000D03*
X-5250000Y+4492000D03*
D13*
X-7000000Y+5242000D03*
X-7000000Y+5750000D03*
M02*
