G04 PROTEUS GERBER X2 FILE*
%TF.GenerationSoftware,Labcenter,Proteus,8.12-SP0-Build30713*%
%TF.CreationDate,2022-01-23T14:34:13+00:00*%
%TF.FileFunction,Copper,L2,Bot*%
%TF.FilePolarity,Positive*%
%TF.Part,Single*%
%TF.SameCoordinates,{31d8c894-68c1-4210-9226-32e75d25b3a7}*%
%FSLAX45Y45*%
%MOMM*%
G01*
%TA.AperFunction,Conductor*%
%ADD10C,0.508000*%
%TA.AperFunction,ComponentPad*%
%ADD11R,1.270000X1.270000*%
%ADD12C,1.270000*%
%TA.AperFunction,ComponentPad*%
%ADD13C,3.048000*%
%ADD14C,1.778000*%
%TA.AperFunction,ComponentPad*%
%ADD15R,1.778000X1.778000*%
%ADD16C,6.350000*%
%TA.AperFunction,ComponentPad*%
%ADD17C,2.032000*%
%TD.AperFunction*%
D10*
X-2492000Y+2500000D02*
X-1992000Y+2000000D01*
X-250000Y+2000000D01*
X-250000Y+2508000D02*
X-535500Y+2222500D01*
X-1587500Y+2222500D01*
X-1730000Y+2365000D01*
X-1730000Y+2500000D01*
X-1730000Y+3262000D02*
X-1484000Y+3016000D01*
X-250000Y+3016000D01*
X-250000Y+3524000D02*
X-2492000Y+3524000D01*
X-2492000Y+3262000D01*
X-2742000Y+6000000D02*
X-2266500Y+5524500D01*
X-1714500Y+5524500D01*
X-1547000Y+5357000D01*
X-1547000Y+4889500D01*
X-860500Y+4889500D01*
X-250000Y+5500000D01*
X-1980000Y+6000000D02*
X-1820500Y+6159500D01*
X-723000Y+6159500D01*
X-571500Y+6008000D01*
X-250000Y+6008000D01*
X-250000Y+6516000D02*
X-928000Y+6516000D01*
X-1333500Y+6921500D01*
X-1820500Y+6921500D01*
X-1980000Y+6762000D01*
X-2742000Y+6762000D02*
X-2328500Y+7175500D01*
X-786500Y+7175500D01*
X-635000Y+7024000D01*
X-250000Y+7024000D01*
X-6477000Y+2540000D02*
X-5905500Y+1968500D01*
X-5281500Y+1968500D01*
X-5000000Y+2250000D01*
X-6477000Y+2540000D02*
X-6750000Y+2540000D01*
X-6877000Y+2667000D01*
X-6877000Y+2838840D01*
X-4500000Y+2250000D02*
X-4500000Y+2540000D01*
X-4627000Y+2667000D01*
X-6039680Y+2667000D01*
X-6623000Y+3250320D01*
X-6623000Y+3798960D02*
X-5745040Y+2921000D01*
X-4889500Y+2921000D01*
X-4826000Y+2984500D01*
X-2488000Y+6000000D02*
X-2488000Y+6223000D01*
X-2857500Y+6592500D01*
X-2857500Y+7239000D01*
X-2984500Y+7366000D01*
X-7366000Y+7366000D01*
X-7493000Y+7239000D01*
X-7493000Y+4127500D01*
X-7366000Y+4000500D01*
X-6824540Y+4000500D01*
X-6623000Y+3798960D01*
X-7000000Y+5750000D02*
X-7239000Y+5511000D01*
X-7239000Y+5016500D01*
X-7112000Y+4889500D01*
X-6223000Y+4889500D01*
X-6096000Y+4762500D01*
X-6096000Y+3873500D01*
X-5969000Y+3746500D01*
X-4953000Y+3746500D01*
X-4826000Y+3619500D01*
X-4826000Y+2984500D01*
X-4318000Y+2921000D02*
X-4762500Y+2921000D01*
X-4826000Y+2984500D01*
X-2617412Y+2603500D02*
X-2617412Y+2272088D01*
X-2794000Y+2095500D01*
X-4191000Y+2095500D01*
X-4318000Y+2222500D01*
X-4318000Y+2921000D01*
X-2234000Y+6762000D02*
X-1947500Y+7048500D01*
X-1206500Y+7048500D01*
X-889000Y+6731000D01*
X-127000Y+6731000D01*
X+0Y+6604000D01*
X+0Y+6350000D01*
X-63500Y+6286500D01*
X-3000000Y+2500000D02*
X-3412000Y+2500000D01*
X-3579000Y+2667000D01*
X-3579000Y+4381500D01*
X-3071000Y+4381500D01*
X-3071000Y+3896500D01*
X-2921000Y+3746500D01*
X-7000000Y+7008000D02*
X-6004000Y+7008000D01*
X-5500000Y+6504000D01*
X-1333500Y+2794000D02*
X-127000Y+2794000D01*
X+0Y+2921000D01*
X+0Y+3238500D01*
X-63500Y+3302000D01*
X-63500Y+6286500D02*
X-1345000Y+6286500D01*
X-1472000Y+6413500D01*
X-1472000Y+6762000D01*
X-63500Y+5715000D02*
X-825500Y+5715000D01*
X-1110500Y+6000000D01*
X-1472000Y+6000000D01*
X-3250000Y+6000000D02*
X-3250000Y+5330000D01*
X-2944000Y+5024000D01*
X-3250000Y+6762000D02*
X-3742000Y+6762000D01*
X-4000000Y+6504000D01*
X-63500Y+5715000D02*
X+0Y+5651500D01*
X+0Y+5266000D01*
X-250000Y+5016000D01*
X-63500Y+3302000D02*
X+0Y+3365500D01*
X+0Y+3750000D01*
X-250000Y+4000000D01*
X-1333500Y+2794000D02*
X-1460500Y+2921000D01*
X-2222500Y+2921000D01*
X-3000000Y+2500000D02*
X-3000000Y+2667000D01*
X-2680912Y+2667000D01*
X-2617412Y+2603500D01*
X-2238000Y+2500000D02*
X-2238000Y+2667000D01*
X-2553912Y+2667000D01*
X-2617412Y+2603500D01*
X-1222000Y+2500000D02*
X-1397000Y+2675000D01*
X-1397000Y+2794000D01*
X-1333500Y+2794000D01*
X-63500Y+3302000D02*
X-825500Y+3302000D01*
X-865500Y+3262000D01*
X-1222000Y+3262000D01*
X-2921000Y+3746500D02*
X-3000000Y+3667500D01*
X-3000000Y+3262000D01*
X-2234000Y+6000000D02*
X-2234000Y+6762000D01*
X-3250000Y+6000000D02*
X-3250000Y+6762000D01*
X-1984000Y+2500000D02*
X-1984000Y+2667000D01*
X-1730000Y+2667000D01*
X-1603000Y+2540000D01*
X-1603000Y+2349500D01*
X-1222000Y+2349500D01*
X-1222000Y+2500000D01*
X-7000000Y+7008000D02*
X-7239000Y+6769000D01*
X-7239000Y+5989000D01*
X-7000000Y+5750000D01*
X-4750000Y+6504000D02*
X-5500000Y+6504000D01*
X-4000000Y+6504000D02*
X-4750000Y+6504000D01*
X-63500Y+6286500D02*
X+0Y+6223000D01*
X+0Y+5778500D01*
X-63500Y+5715000D01*
X-2238000Y+3262000D02*
X-2238000Y+3111500D01*
X-2222500Y+3096000D01*
X-2222500Y+2921000D01*
X-2234000Y+6762000D02*
X-2488000Y+6762000D01*
X-2488000Y+6000000D02*
X-2234000Y+6000000D01*
X-2238000Y+2500000D02*
X-1984000Y+2500000D01*
X-2238000Y+3262000D02*
X-1984000Y+3262000D01*
X-2921000Y+3746500D02*
X-2690000Y+3977500D01*
X-2690000Y+4262000D01*
X-1166000Y+4262000D02*
X-1539500Y+4635500D01*
X-1905000Y+4635500D01*
X-2051309Y+4781809D01*
X-2051309Y+5143500D01*
X-2178309Y+5270500D01*
X-2857500Y+5270500D01*
X-2996000Y+5409000D01*
X-2996000Y+6000000D01*
X-1166000Y+5024000D02*
X-1166000Y+5651500D01*
X-1293000Y+5778500D01*
X-1504500Y+5778500D01*
X-1726000Y+6000000D01*
X-1726000Y+6762000D02*
X-1726000Y+6465500D01*
X-2095500Y+6096000D01*
X-2095500Y+5778500D01*
X-1968500Y+5651500D01*
X-1587500Y+5651500D01*
X-1420000Y+5484000D01*
X-1420000Y+5024000D01*
X-2996000Y+6762000D02*
X-3473000Y+7239000D01*
X-7239000Y+7239000D01*
X-7366000Y+7112000D01*
X-7366000Y+4254500D01*
X-7239000Y+4127500D01*
X-6350000Y+4127500D01*
X-6223000Y+4000500D01*
X-6223000Y+3746500D01*
X-6096000Y+3619500D01*
X-5353500Y+3619500D01*
X-5000000Y+3266000D01*
X-2996000Y+6762000D02*
X-2996000Y+6286500D01*
X-2857500Y+6148000D01*
X-2857500Y+5524500D01*
X-2730500Y+5397500D01*
X-2047500Y+5397500D01*
X-1674000Y+5024000D01*
X-6877000Y+3387480D02*
X-7493000Y+3387480D01*
X-7620000Y+3514480D01*
X-7620000Y+7366000D01*
X-7493000Y+7493000D01*
X+0Y+7493000D01*
X+127000Y+7366000D01*
X+127000Y+4889500D01*
X+0Y+4762500D01*
X-1666500Y+4762500D01*
X-1928000Y+5024000D01*
X-2182000Y+5024000D02*
X-2182000Y+4953000D01*
X-2133858Y+4953000D01*
X-2133858Y+4635500D01*
X-2006858Y+4508500D01*
X-1968500Y+4508500D01*
X-1801000Y+4341000D01*
X-1801000Y+4127500D01*
X-1674000Y+4000500D01*
X-825500Y+4000500D01*
X-571500Y+4254500D01*
X+127000Y+4254500D01*
X+254000Y+4127500D01*
X+254000Y+1905000D01*
X+127000Y+1778000D01*
X-4572000Y+1778000D01*
X-4699000Y+1905000D01*
X-4699000Y+2286000D01*
X-4826000Y+2413000D01*
X-5337000Y+2413000D01*
X-5500000Y+2250000D01*
X-2436000Y+4262000D02*
X-2436000Y+4000500D01*
X-2191009Y+4000500D01*
X-2064009Y+4127500D01*
X-2064009Y+4381500D01*
X-2222500Y+4381500D01*
X-2667000Y+4826000D01*
X-3452000Y+4826000D01*
X-3579000Y+4953000D01*
X-3579000Y+5829000D01*
X-4000000Y+6250000D01*
X-2436000Y+4262000D02*
X-2746000Y+4572000D01*
X-4953000Y+4572000D01*
X-5207000Y+4318000D01*
X-5334000Y+4318000D01*
X-5461000Y+4445000D01*
X-5461000Y+4789000D01*
X-5250000Y+5000000D01*
X-4762500Y+4762500D02*
X-4699000Y+4699000D01*
X-2683700Y+4699000D01*
X-2246700Y+4262000D01*
X-2182000Y+4262000D01*
X-4762500Y+4762500D02*
X-5250000Y+4762500D01*
X-5250000Y+4492000D01*
X-4762500Y+4762500D02*
X-4762500Y+5778500D01*
X-4750000Y+5791000D01*
X-4750000Y+6250000D01*
X-2746000Y+2500000D02*
X-2896500Y+2349500D01*
X-3556000Y+2349500D01*
X-3706000Y+2499500D01*
X-3706000Y+4262000D01*
X-1476000Y+2500000D02*
X-1476000Y+2667000D01*
X-1603000Y+2794000D01*
X-3302000Y+2794000D01*
X-3452000Y+2944000D01*
X-3452000Y+4262000D01*
X-1476000Y+3262000D02*
X-1643000Y+3429000D01*
X-2365000Y+3429000D01*
X-2365000Y+3111500D01*
X-3048000Y+3111500D01*
X-3198000Y+3261500D01*
X-3198000Y+4262000D01*
X-2746000Y+3262000D02*
X-2746000Y+3492500D01*
X-2619000Y+3619500D01*
X-2095500Y+3619500D01*
X-1928000Y+3787000D01*
X-1928000Y+4262000D01*
X-250000Y+4508000D02*
X-635500Y+4508000D01*
X-1016000Y+4127500D01*
X-1539500Y+4127500D01*
X-1674000Y+4262000D01*
X-4468000Y+4262000D02*
X-4635500Y+4262000D01*
X-4897000Y+4000500D01*
X-5715000Y+4000500D01*
X-5842000Y+4127500D01*
X-5842000Y+5115000D01*
X-5969000Y+5242000D01*
X-7000000Y+5242000D01*
X-4500000Y+3266000D02*
X-4699000Y+3465000D01*
X-4699000Y+4000500D01*
X-4468000Y+4262000D02*
X-4468000Y+4000500D01*
X-4699000Y+4000500D01*
X-4500000Y+3266000D02*
X-4000000Y+3266000D01*
X-5500000Y+6250000D02*
X-5500000Y+5715000D01*
X-5588000Y+5627000D01*
X-5588000Y+4254500D01*
X-5461000Y+4127500D01*
X-5080000Y+4127500D01*
X-4826000Y+4381500D01*
X-3896500Y+4381500D01*
X-3833000Y+4318000D01*
X-5500000Y+6250000D02*
X-6750000Y+6250000D01*
X-7000000Y+6500000D01*
X-3833000Y+4318000D02*
X-3674250Y+4476750D01*
X-2944000Y+4476750D01*
X-2944000Y+4262000D01*
X-3833000Y+4318000D02*
X-3833000Y+2417000D01*
X-4000000Y+2250000D01*
D11*
X-4468000Y+4262000D03*
D12*
X-4214000Y+4262000D03*
X-3960000Y+4262000D03*
X-3706000Y+4262000D03*
X-3452000Y+4262000D03*
X-3198000Y+4262000D03*
X-2944000Y+4262000D03*
X-2690000Y+4262000D03*
X-2436000Y+4262000D03*
X-2182000Y+4262000D03*
X-1928000Y+4262000D03*
X-1674000Y+4262000D03*
X-1420000Y+4262000D03*
X-1166000Y+4262000D03*
X-1166000Y+5024000D03*
X-1420000Y+5024000D03*
X-1674000Y+5024000D03*
X-1928000Y+5024000D03*
X-2182000Y+5024000D03*
X-2436000Y+5024000D03*
X-2690000Y+5024000D03*
X-2944000Y+5024000D03*
X-3198000Y+5024000D03*
X-3452000Y+5024000D03*
X-3706000Y+5024000D03*
X-3960000Y+5024000D03*
X-4214000Y+5024000D03*
X-4466000Y+5024000D03*
D11*
X-3000000Y+2500000D03*
D12*
X-2746000Y+2500000D03*
X-2492000Y+2500000D03*
X-2238000Y+2500000D03*
X-1984000Y+2500000D03*
X-1730000Y+2500000D03*
X-1476000Y+2500000D03*
X-1222000Y+2500000D03*
X-1222000Y+3262000D03*
X-1476000Y+3262000D03*
X-1730000Y+3262000D03*
X-1984000Y+3262000D03*
X-2238000Y+3262000D03*
X-2492000Y+3262000D03*
X-2746000Y+3262000D03*
X-3000000Y+3262000D03*
D11*
X-3250000Y+6000000D03*
D12*
X-2996000Y+6000000D03*
X-2742000Y+6000000D03*
X-2488000Y+6000000D03*
X-2234000Y+6000000D03*
X-1980000Y+6000000D03*
X-1726000Y+6000000D03*
X-1472000Y+6000000D03*
X-1472000Y+6762000D03*
X-1726000Y+6762000D03*
X-1980000Y+6762000D03*
X-2234000Y+6762000D03*
X-2488000Y+6762000D03*
X-2742000Y+6762000D03*
X-2996000Y+6762000D03*
X-3250000Y+6762000D03*
D13*
X-7000000Y+6500000D03*
X-7000000Y+7008000D03*
X-250000Y+2000000D03*
X-250000Y+2508000D03*
X-250000Y+3016000D03*
X-250000Y+3524000D03*
X-250000Y+5500000D03*
X-250000Y+6008000D03*
X-250000Y+6516000D03*
X-250000Y+7024000D03*
X-250000Y+4000000D03*
X-250000Y+4508000D03*
X-250000Y+5016000D03*
D14*
X-4000000Y+2250000D03*
X-4000000Y+3266000D03*
X-4500000Y+2250000D03*
X-4500000Y+3266000D03*
X-5000000Y+2250000D03*
X-5000000Y+3266000D03*
X-5500000Y+2250000D03*
X-5500000Y+3266000D03*
X-4000000Y+6250000D03*
X-4000000Y+6504000D03*
X-4750000Y+6250000D03*
X-4750000Y+6504000D03*
X-5500000Y+6250000D03*
X-5500000Y+6504000D03*
D15*
X-6623000Y+2701680D03*
X-6623000Y+2976000D03*
X-6623000Y+3250320D03*
X-6623000Y+3524640D03*
X-6623000Y+3798960D03*
X-6877000Y+2838840D03*
X-6877000Y+3113160D03*
X-6877000Y+3387480D03*
X-6877000Y+3661800D03*
D16*
X-6750000Y+2000640D03*
X-6750000Y+4500000D03*
D17*
X-5250000Y+5000000D03*
X-5250000Y+4492000D03*
D13*
X-7000000Y+5242000D03*
X-7000000Y+5750000D03*
M02*
