G04 PROTEUS GERBER X2 FILE*
%TF.GenerationSoftware,Labcenter,Proteus,8.12-SP0-Build30713*%
%TF.CreationDate,2022-01-23T14:34:13+00:00*%
%TF.FileFunction,Legend,Top*%
%TF.FilePolarity,Positive*%
%TF.Part,Single*%
%TF.SameCoordinates,{31d8c894-68c1-4210-9226-32e75d25b3a7}*%
%FSLAX45Y45*%
%MOMM*%
G01*
%TA.AperFunction,Material*%
%ADD18C,0.203200*%
%TD.AperFunction*%
D18*
X-7750000Y+1500000D02*
X+500000Y+1500000D01*
X+500000Y+7500000D01*
X-7750000Y+7500000D01*
X-7750000Y+1500000D01*
X-4529500Y+4389000D02*
X-1100500Y+4389000D01*
X-1100500Y+4897000D01*
X-4529500Y+4897000D01*
X-4529500Y+4389000D02*
X-4529500Y+4516000D01*
X-4529500Y+4897000D02*
X-4529500Y+4770000D01*
X-4529500Y+4516000D02*
X-4503532Y+4518527D01*
X-4479518Y+4525798D01*
X-4457923Y+4537348D01*
X-4439211Y+4552711D01*
X-4423848Y+4571423D01*
X-4412298Y+4593019D01*
X-4405027Y+4617033D01*
X-4402500Y+4643000D01*
X-4529500Y+4770000D02*
X-4503532Y+4767473D01*
X-4479518Y+4760202D01*
X-4457923Y+4748653D01*
X-4439211Y+4733289D01*
X-4423848Y+4714577D01*
X-4412298Y+4692982D01*
X-4405027Y+4668968D01*
X-4402500Y+4643000D01*
X-4471516Y+4429640D02*
X-4471541Y+4430237D01*
X-4471743Y+4431433D01*
X-4472167Y+4432629D01*
X-4472861Y+4433825D01*
X-4473921Y+4435004D01*
X-4475117Y+4435867D01*
X-4476313Y+4436416D01*
X-4477509Y+4436725D01*
X-4478700Y+4436824D01*
X-4485884Y+4429640D02*
X-4485859Y+4430237D01*
X-4485657Y+4431433D01*
X-4485233Y+4432629D01*
X-4484539Y+4433825D01*
X-4483479Y+4435004D01*
X-4482283Y+4435867D01*
X-4481087Y+4436416D01*
X-4479891Y+4436725D01*
X-4478700Y+4436824D01*
X-4485884Y+4429640D02*
X-4485859Y+4429043D01*
X-4485657Y+4427847D01*
X-4485233Y+4426651D01*
X-4484539Y+4425455D01*
X-4483479Y+4424276D01*
X-4482283Y+4423413D01*
X-4481087Y+4422864D01*
X-4479891Y+4422555D01*
X-4478700Y+4422456D01*
X-4471516Y+4429640D02*
X-4471541Y+4429043D01*
X-4471743Y+4427847D01*
X-4472167Y+4426651D01*
X-4472861Y+4425455D01*
X-4473921Y+4424276D01*
X-4475117Y+4423413D01*
X-4476313Y+4422864D01*
X-4477509Y+4422555D01*
X-4478700Y+4422456D01*
X-4661580Y+4516000D02*
X-4585380Y+4516000D01*
X-4570140Y+4531875D01*
X-4570140Y+4595375D01*
X-4585380Y+4611250D01*
X-4661580Y+4611250D01*
X-4631100Y+4674750D02*
X-4661580Y+4706500D01*
X-4570140Y+4706500D01*
X-3127000Y+2627000D02*
X-3127000Y+2754000D01*
X-3000000Y+2881000D02*
X-3002436Y+2906876D01*
X-3009485Y+2930848D01*
X-3020762Y+2952438D01*
X-3035878Y+2971170D01*
X-3054446Y+2986569D01*
X-3076081Y+2998158D01*
X-3100394Y+3005460D01*
X-3127000Y+3008000D01*
X-3000000Y+2881000D02*
X-3002436Y+2854394D01*
X-3009485Y+2830081D01*
X-3020762Y+2808446D01*
X-3035878Y+2789878D01*
X-3054446Y+2774762D01*
X-3076081Y+2763485D01*
X-3100394Y+2756436D01*
X-3127000Y+2754000D01*
X-3127000Y+3008000D02*
X-3127000Y+3135000D01*
X-1095000Y+2627000D02*
X-1095000Y+3135000D01*
X-3127000Y+2627000D02*
X-1095000Y+2627000D01*
X-1095000Y+3135000D02*
X-3127000Y+3135000D01*
X-3259080Y+2754000D02*
X-3182880Y+2754000D01*
X-3167640Y+2769875D01*
X-3167640Y+2833375D01*
X-3182880Y+2849250D01*
X-3259080Y+2849250D01*
X-3243840Y+2896875D02*
X-3259080Y+2912750D01*
X-3259080Y+2960375D01*
X-3243840Y+2976250D01*
X-3228600Y+2976250D01*
X-3213360Y+2960375D01*
X-3213360Y+2912750D01*
X-3198120Y+2896875D01*
X-3167640Y+2896875D01*
X-3167640Y+2976250D01*
X-3377000Y+6127000D02*
X-3377000Y+6254000D01*
X-3250000Y+6381000D02*
X-3252436Y+6406876D01*
X-3259485Y+6430848D01*
X-3270762Y+6452438D01*
X-3285878Y+6471170D01*
X-3304446Y+6486569D01*
X-3326081Y+6498158D01*
X-3350394Y+6505460D01*
X-3377000Y+6508000D01*
X-3250000Y+6381000D02*
X-3252436Y+6354394D01*
X-3259485Y+6330081D01*
X-3270762Y+6308446D01*
X-3285878Y+6289878D01*
X-3304446Y+6274762D01*
X-3326081Y+6263485D01*
X-3350394Y+6256436D01*
X-3377000Y+6254000D01*
X-3377000Y+6508000D02*
X-3377000Y+6635000D01*
X-1345000Y+6127000D02*
X-1345000Y+6635000D01*
X-3377000Y+6127000D02*
X-1345000Y+6127000D01*
X-1345000Y+6635000D02*
X-3377000Y+6635000D01*
X-3509080Y+6254000D02*
X-3432880Y+6254000D01*
X-3417640Y+6269875D01*
X-3417640Y+6333375D01*
X-3432880Y+6349250D01*
X-3509080Y+6349250D01*
X-3493840Y+6396875D02*
X-3509080Y+6412750D01*
X-3509080Y+6460375D01*
X-3493840Y+6476250D01*
X-3478600Y+6476250D01*
X-3463360Y+6460375D01*
X-3448120Y+6476250D01*
X-3432880Y+6476250D01*
X-3417640Y+6460375D01*
X-3417640Y+6412750D01*
X-3432880Y+6396875D01*
X-3463360Y+6428625D02*
X-3463360Y+6460375D01*
X-7508000Y+6246000D02*
X-6492000Y+6246000D01*
X-7508000Y+7262000D02*
X-6492000Y+7262000D01*
X-6492000Y+6246000D02*
X-6492000Y+7262000D01*
X-7508000Y+6246000D02*
X-7508000Y+7262000D01*
X-7640080Y+6722250D02*
X-7640080Y+6642875D01*
X-7609600Y+6642875D01*
X-7609600Y+6706375D01*
X-7594360Y+6722250D01*
X-7563880Y+6722250D01*
X-7548640Y+6706375D01*
X-7548640Y+6658750D01*
X-7563880Y+6642875D01*
X-7640080Y+6754000D02*
X-7594360Y+6754000D01*
X-7548640Y+6801625D01*
X-7594360Y+6849250D01*
X-7640080Y+6849250D01*
X-758000Y+1746000D02*
X+258000Y+1746000D01*
X-758000Y+3778000D02*
X+258000Y+3778000D01*
X+258000Y+1746000D01*
X-758000Y+1746000D02*
X-758000Y+3778000D01*
X-890080Y+2793750D02*
X-798640Y+2698500D01*
X-890080Y+2698500D02*
X-844360Y+2746125D01*
X-758000Y+5246000D02*
X+258000Y+5246000D01*
X-758000Y+7278000D02*
X+258000Y+7278000D01*
X+258000Y+5246000D01*
X-758000Y+5246000D02*
X-758000Y+7278000D01*
X-890080Y+6198500D02*
X-798640Y+6293750D01*
X-798640Y+6198500D02*
X-890080Y+6293750D01*
X-758000Y+3746000D02*
X+258000Y+3746000D01*
X-758000Y+5270000D02*
X+258000Y+5270000D01*
X+258000Y+3746000D02*
X+258000Y+5270000D01*
X-758000Y+5270000D02*
X-758000Y+3746000D01*
X-890080Y+4444500D02*
X-890080Y+4539750D01*
X-798640Y+4444500D01*
X-798640Y+4539750D01*
X-4000000Y+2377000D02*
X-4000000Y+2504000D01*
X-4063500Y+2504000D02*
X-3936500Y+2504000D01*
X-3936500Y+3012000D01*
X-4063500Y+3012000D01*
X-4063500Y+2504000D01*
X-4000000Y+3012000D02*
X-4000000Y+3139000D01*
X-4104140Y+2631000D02*
X-4195580Y+2631000D01*
X-4195580Y+2710375D01*
X-4180340Y+2726250D01*
X-4165100Y+2726250D01*
X-4149860Y+2710375D01*
X-4149860Y+2631000D01*
X-4149860Y+2710375D02*
X-4134620Y+2726250D01*
X-4104140Y+2726250D01*
X-4165100Y+2789750D02*
X-4195580Y+2821500D01*
X-4104140Y+2821500D01*
X-4500000Y+2377000D02*
X-4500000Y+2504000D01*
X-4563500Y+2504000D02*
X-4436500Y+2504000D01*
X-4436500Y+3012000D01*
X-4563500Y+3012000D01*
X-4563500Y+2504000D01*
X-4500000Y+3012000D02*
X-4500000Y+3139000D01*
X-4604140Y+2631000D02*
X-4695580Y+2631000D01*
X-4695580Y+2710375D01*
X-4680340Y+2726250D01*
X-4665100Y+2726250D01*
X-4649860Y+2710375D01*
X-4649860Y+2631000D01*
X-4649860Y+2710375D02*
X-4634620Y+2726250D01*
X-4604140Y+2726250D01*
X-4680340Y+2773875D02*
X-4695580Y+2789750D01*
X-4695580Y+2837375D01*
X-4680340Y+2853250D01*
X-4665100Y+2853250D01*
X-4649860Y+2837375D01*
X-4649860Y+2789750D01*
X-4634620Y+2773875D01*
X-4604140Y+2773875D01*
X-4604140Y+2853250D01*
X-5000000Y+2377000D02*
X-5000000Y+2504000D01*
X-5063500Y+2504000D02*
X-4936500Y+2504000D01*
X-4936500Y+3012000D01*
X-5063500Y+3012000D01*
X-5063500Y+2504000D01*
X-5000000Y+3012000D02*
X-5000000Y+3139000D01*
X-5104140Y+2631000D02*
X-5195580Y+2631000D01*
X-5195580Y+2710375D01*
X-5180340Y+2726250D01*
X-5165100Y+2726250D01*
X-5149860Y+2710375D01*
X-5149860Y+2631000D01*
X-5149860Y+2710375D02*
X-5134620Y+2726250D01*
X-5104140Y+2726250D01*
X-5180340Y+2773875D02*
X-5195580Y+2789750D01*
X-5195580Y+2837375D01*
X-5180340Y+2853250D01*
X-5165100Y+2853250D01*
X-5149860Y+2837375D01*
X-5134620Y+2853250D01*
X-5119380Y+2853250D01*
X-5104140Y+2837375D01*
X-5104140Y+2789750D01*
X-5119380Y+2773875D01*
X-5149860Y+2805625D02*
X-5149860Y+2837375D01*
X-5500000Y+2377000D02*
X-5500000Y+2504000D01*
X-5563500Y+2504000D02*
X-5436500Y+2504000D01*
X-5436500Y+3012000D01*
X-5563500Y+3012000D01*
X-5563500Y+2504000D01*
X-5500000Y+3012000D02*
X-5500000Y+3139000D01*
X-5604140Y+2631000D02*
X-5695580Y+2631000D01*
X-5695580Y+2710375D01*
X-5680340Y+2726250D01*
X-5665100Y+2726250D01*
X-5649860Y+2710375D01*
X-5649860Y+2631000D01*
X-5649860Y+2710375D02*
X-5634620Y+2726250D01*
X-5604140Y+2726250D01*
X-5634620Y+2853250D02*
X-5634620Y+2758000D01*
X-5695580Y+2821500D01*
X-5604140Y+2821500D01*
X-4000000Y+6123000D02*
X-4025876Y+6128080D01*
X-4049848Y+6142685D01*
X-4071438Y+6165862D01*
X-4090170Y+6196660D01*
X-4105569Y+6234125D01*
X-4117158Y+6277305D01*
X-4124460Y+6325248D01*
X-4127000Y+6377000D01*
X-4000000Y+6631000D02*
X-4025876Y+6625920D01*
X-4049848Y+6611315D01*
X-4071438Y+6588138D01*
X-4090170Y+6557340D01*
X-4105569Y+6519875D01*
X-4117158Y+6476695D01*
X-4124460Y+6428752D01*
X-4127000Y+6377000D01*
X-4000000Y+6123000D02*
X-3974124Y+6128080D01*
X-3950152Y+6142685D01*
X-3928562Y+6165862D01*
X-3909830Y+6196660D01*
X-3894431Y+6234125D01*
X-3882842Y+6277305D01*
X-3875540Y+6325248D01*
X-3873000Y+6377000D01*
X-4000000Y+6631000D02*
X-3974124Y+6625920D01*
X-3950152Y+6611315D01*
X-3928562Y+6588138D01*
X-3909830Y+6557340D01*
X-3894431Y+6519875D01*
X-3882842Y+6476695D01*
X-3875540Y+6428752D01*
X-3873000Y+6377000D01*
X-4182880Y+6345250D02*
X-4167640Y+6329375D01*
X-4167640Y+6281750D01*
X-4198120Y+6250000D01*
X-4228600Y+6250000D01*
X-4259080Y+6281750D01*
X-4259080Y+6329375D01*
X-4243840Y+6345250D01*
X-4228600Y+6408750D02*
X-4259080Y+6440500D01*
X-4167640Y+6440500D01*
X-4750000Y+6123000D02*
X-4775876Y+6128080D01*
X-4799848Y+6142685D01*
X-4821438Y+6165862D01*
X-4840170Y+6196660D01*
X-4855569Y+6234125D01*
X-4867158Y+6277305D01*
X-4874460Y+6325248D01*
X-4877000Y+6377000D01*
X-4750000Y+6631000D02*
X-4775876Y+6625920D01*
X-4799848Y+6611315D01*
X-4821438Y+6588138D01*
X-4840170Y+6557340D01*
X-4855569Y+6519875D01*
X-4867158Y+6476695D01*
X-4874460Y+6428752D01*
X-4877000Y+6377000D01*
X-4750000Y+6123000D02*
X-4724124Y+6128080D01*
X-4700152Y+6142685D01*
X-4678562Y+6165862D01*
X-4659830Y+6196660D01*
X-4644431Y+6234125D01*
X-4632842Y+6277305D01*
X-4625540Y+6325248D01*
X-4623000Y+6377000D01*
X-4750000Y+6631000D02*
X-4724124Y+6625920D01*
X-4700152Y+6611315D01*
X-4678562Y+6588138D01*
X-4659830Y+6557340D01*
X-4644431Y+6519875D01*
X-4632842Y+6476695D01*
X-4625540Y+6428752D01*
X-4623000Y+6377000D01*
X-4932880Y+6345250D02*
X-4917640Y+6329375D01*
X-4917640Y+6281750D01*
X-4948120Y+6250000D01*
X-4978600Y+6250000D01*
X-5009080Y+6281750D01*
X-5009080Y+6329375D01*
X-4993840Y+6345250D01*
X-4993840Y+6392875D02*
X-5009080Y+6408750D01*
X-5009080Y+6456375D01*
X-4993840Y+6472250D01*
X-4978600Y+6472250D01*
X-4963360Y+6456375D01*
X-4963360Y+6408750D01*
X-4948120Y+6392875D01*
X-4917640Y+6392875D01*
X-4917640Y+6472250D01*
X-5500000Y+6123000D02*
X-5525876Y+6128080D01*
X-5549848Y+6142685D01*
X-5571438Y+6165862D01*
X-5590170Y+6196660D01*
X-5605569Y+6234125D01*
X-5617158Y+6277305D01*
X-5624460Y+6325248D01*
X-5627000Y+6377000D01*
X-5500000Y+6631000D02*
X-5525876Y+6625920D01*
X-5549848Y+6611315D01*
X-5571438Y+6588138D01*
X-5590170Y+6557340D01*
X-5605569Y+6519875D01*
X-5617158Y+6476695D01*
X-5624460Y+6428752D01*
X-5627000Y+6377000D01*
X-5500000Y+6123000D02*
X-5474124Y+6128080D01*
X-5450152Y+6142685D01*
X-5428562Y+6165862D01*
X-5409830Y+6196660D01*
X-5394431Y+6234125D01*
X-5382842Y+6277305D01*
X-5375540Y+6325248D01*
X-5373000Y+6377000D01*
X-5500000Y+6631000D02*
X-5474124Y+6625920D01*
X-5450152Y+6611315D01*
X-5428562Y+6588138D01*
X-5409830Y+6557340D01*
X-5394431Y+6519875D01*
X-5382842Y+6476695D01*
X-5375540Y+6428752D01*
X-5373000Y+6377000D01*
X-5682880Y+6345250D02*
X-5667640Y+6329375D01*
X-5667640Y+6281750D01*
X-5698120Y+6250000D01*
X-5728600Y+6250000D01*
X-5759080Y+6281750D01*
X-5759080Y+6329375D01*
X-5743840Y+6345250D01*
X-5743840Y+6392875D02*
X-5759080Y+6408750D01*
X-5759080Y+6456375D01*
X-5743840Y+6472250D01*
X-5728600Y+6472250D01*
X-5713360Y+6456375D01*
X-5698120Y+6472250D01*
X-5682880Y+6472250D01*
X-5667640Y+6456375D01*
X-5667640Y+6408750D01*
X-5682880Y+6392875D01*
X-5713360Y+6424625D02*
X-5713360Y+6456375D01*
X-7385000Y+1645040D02*
X-6445200Y+1645040D01*
X-6445200Y+4845440D01*
X-7385000Y+4845440D01*
X-7385000Y+1645040D01*
X-7385000Y+2508640D02*
X-7639000Y+2508640D01*
X-7639000Y+3969140D01*
X-7385000Y+3969140D01*
X-7385000Y+4413640D02*
X-7575500Y+4413640D01*
X-7575500Y+4604140D01*
X-7385000Y+4604140D01*
X-7385000Y+2000640D02*
X-7575500Y+2000640D01*
X-7575500Y+1810140D01*
X-7385000Y+1810140D01*
X-7710120Y+3118240D02*
X-7694880Y+3118240D01*
X-7679640Y+3134115D01*
X-7679640Y+3197615D01*
X-7694880Y+3213490D01*
X-7771080Y+3213490D01*
X-7740600Y+3276990D02*
X-7771080Y+3308740D01*
X-7679640Y+3308740D01*
X-4996000Y+5127000D02*
X-4996000Y+4365000D01*
X-5123000Y+4238000D01*
X-5377000Y+4238000D01*
X-5504000Y+4365000D01*
X-5504000Y+5127000D01*
X-5377000Y+5254000D01*
X-5123000Y+5254000D01*
X-4996000Y+5127000D01*
X-4955360Y+4619000D02*
X-4863920Y+4714250D01*
X-4863920Y+4619000D02*
X-4955360Y+4714250D01*
X-4924880Y+4777750D02*
X-4955360Y+4809500D01*
X-4863920Y+4809500D01*
X-7508000Y+4988000D02*
X-6492000Y+4988000D01*
X-7508000Y+6004000D02*
X-6492000Y+6004000D01*
X-6492000Y+4988000D02*
X-6492000Y+6004000D01*
X-7508000Y+4988000D02*
X-7508000Y+6004000D01*
X-7548640Y+5178500D02*
X-7640080Y+5178500D01*
X-7640080Y+5257875D01*
X-7624840Y+5273750D01*
X-7609600Y+5273750D01*
X-7594360Y+5257875D01*
X-7594360Y+5178500D01*
X-7594360Y+5257875D02*
X-7579120Y+5273750D01*
X-7548640Y+5273750D01*
X-7548640Y+5400750D02*
X-7548640Y+5305500D01*
X-7640080Y+5305500D01*
X-7640080Y+5400750D01*
X-7594360Y+5305500D02*
X-7594360Y+5369000D01*
X-7563880Y+5432500D02*
X-7548640Y+5448375D01*
X-7548640Y+5511875D01*
X-7563880Y+5527750D01*
X-7579120Y+5527750D01*
X-7594360Y+5511875D01*
X-7594360Y+5448375D01*
X-7609600Y+5432500D01*
X-7624840Y+5432500D01*
X-7640080Y+5448375D01*
X-7640080Y+5511875D01*
X-7624840Y+5527750D01*
X-7548640Y+5654750D02*
X-7548640Y+5559500D01*
X-7640080Y+5559500D01*
X-7640080Y+5654750D01*
X-7594360Y+5559500D02*
X-7594360Y+5623000D01*
X-7640080Y+5686500D02*
X-7640080Y+5781750D01*
X-7640080Y+5734125D02*
X-7548640Y+5734125D01*
X-5989200Y+7199200D02*
X-6014600Y+7173800D01*
X-6090800Y+7173800D01*
X-6141600Y+7224600D01*
X-6141600Y+7275400D01*
X-6090800Y+7326200D01*
X-6014600Y+7326200D01*
X-5989200Y+7300800D01*
X-5938400Y+7173800D02*
X-5938400Y+7326200D01*
X-5786000Y+7173800D01*
X-5786000Y+7326200D01*
X-5582800Y+7199200D02*
X-5608200Y+7173800D01*
X-5684400Y+7173800D01*
X-5735200Y+7224600D01*
X-5735200Y+7275400D01*
X-5684400Y+7326200D01*
X-5608200Y+7326200D01*
X-5582800Y+7300800D01*
X-5506600Y+7250000D02*
X-5379600Y+7250000D01*
X-5328800Y+7173800D02*
X-5328800Y+7326200D01*
X-5252600Y+7250000D01*
X-5176400Y+7326200D01*
X-5176400Y+7173800D01*
X-5100200Y+7275400D02*
X-4998600Y+7275400D01*
X-4973200Y+7250000D01*
X-4973200Y+7173800D01*
X-5100200Y+7173800D01*
X-5125600Y+7199200D01*
X-5100200Y+7224600D01*
X-4973200Y+7224600D01*
X-4770000Y+7250000D02*
X-4795400Y+7275400D01*
X-4897000Y+7275400D01*
X-4922400Y+7250000D01*
X-4922400Y+7199200D01*
X-4897000Y+7173800D01*
X-4795400Y+7173800D01*
X-4770000Y+7199200D01*
X-4566800Y+7173800D02*
X-4566800Y+7250000D01*
X-4592200Y+7275400D01*
X-4693800Y+7275400D01*
X-4719200Y+7250000D01*
X-4719200Y+7326200D02*
X-4719200Y+7173800D01*
X-4439800Y+7275400D02*
X-4439800Y+7173800D01*
X-4439800Y+7326200D02*
X-4439800Y+7326200D01*
X-4312800Y+7173800D02*
X-4312800Y+7275400D01*
X-4312800Y+7250000D02*
X-4287400Y+7275400D01*
X-4185800Y+7275400D01*
X-4160400Y+7250000D01*
X-4160400Y+7173800D01*
X-4109600Y+7224600D02*
X-3957200Y+7224600D01*
X-3957200Y+7250000D01*
X-3982600Y+7275400D01*
X-4084200Y+7275400D01*
X-4109600Y+7250000D01*
X-4109600Y+7199200D01*
X-4084200Y+7173800D01*
X-3982600Y+7173800D01*
X-3677800Y+7250000D02*
X-3550800Y+7250000D01*
X-3296800Y+7173800D02*
X-3296800Y+7326200D01*
X-3195200Y+7326200D01*
X-3144400Y+7275400D01*
X-3144400Y+7224600D01*
X-3195200Y+7173800D01*
X-3296800Y+7173800D01*
X-3093600Y+7173800D02*
X-3093600Y+7275400D01*
X-3093600Y+7250000D02*
X-3068200Y+7275400D01*
X-2966600Y+7275400D01*
X-2941200Y+7250000D01*
X-2865000Y+7275400D02*
X-2763400Y+7275400D01*
X-2738000Y+7250000D01*
X-2738000Y+7173800D01*
X-2865000Y+7173800D01*
X-2890400Y+7199200D01*
X-2865000Y+7224600D01*
X-2738000Y+7224600D01*
X-2687200Y+7275400D02*
X-2687200Y+7199200D01*
X-2661800Y+7173800D01*
X-2611000Y+7224600D01*
X-2560200Y+7173800D01*
X-2534800Y+7199200D01*
X-2534800Y+7275400D01*
X-2280800Y+7173800D02*
X-2280800Y+7326200D01*
X-2204600Y+7250000D01*
X-2128400Y+7326200D01*
X-2128400Y+7173800D01*
X-2052200Y+7275400D02*
X-1950600Y+7275400D01*
X-1925200Y+7250000D01*
X-1925200Y+7173800D01*
X-2052200Y+7173800D01*
X-2077600Y+7199200D01*
X-2052200Y+7224600D01*
X-1925200Y+7224600D01*
X-1722000Y+7250000D02*
X-1747400Y+7275400D01*
X-1849000Y+7275400D01*
X-1874400Y+7250000D01*
X-1874400Y+7199200D01*
X-1849000Y+7173800D01*
X-1747400Y+7173800D01*
X-1722000Y+7199200D01*
X-1518800Y+7173800D02*
X-1518800Y+7250000D01*
X-1544200Y+7275400D01*
X-1645800Y+7275400D01*
X-1671200Y+7250000D01*
X-1671200Y+7326200D02*
X-1671200Y+7173800D01*
X-1391800Y+7275400D02*
X-1391800Y+7173800D01*
X-1391800Y+7326200D02*
X-1391800Y+7326200D01*
X-1264800Y+7173800D02*
X-1264800Y+7275400D01*
X-1264800Y+7250000D02*
X-1239400Y+7275400D01*
X-1137800Y+7275400D01*
X-1112400Y+7250000D01*
X-1112400Y+7173800D01*
X-1061600Y+7224600D02*
X-909200Y+7224600D01*
X-909200Y+7250000D01*
X-934600Y+7275400D01*
X-1036200Y+7275400D01*
X-1061600Y+7250000D01*
X-1061600Y+7199200D01*
X-1036200Y+7173800D01*
X-934600Y+7173800D01*
X-5578800Y+1701800D02*
X-5578800Y+1854200D01*
X-5451800Y+1854200D01*
X-5426400Y+1828800D01*
X-5426400Y+1803400D01*
X-5451800Y+1778000D01*
X-5578800Y+1778000D01*
X-5375600Y+1701800D02*
X-5375600Y+1803400D01*
X-5375600Y+1778000D02*
X-5350200Y+1803400D01*
X-5248600Y+1803400D01*
X-5223200Y+1778000D01*
X-5172400Y+1778000D02*
X-5147000Y+1803400D01*
X-5045400Y+1803400D01*
X-5020000Y+1778000D01*
X-5020000Y+1727200D01*
X-5045400Y+1701800D01*
X-5147000Y+1701800D01*
X-5172400Y+1727200D01*
X-5172400Y+1778000D01*
X-4969200Y+1803400D02*
X-4969200Y+1752600D01*
X-4943800Y+1727200D01*
X-4842200Y+1727200D01*
X-4816800Y+1752600D01*
X-4816800Y+1803400D02*
X-4816800Y+1701800D01*
X-4842200Y+1676400D01*
X-4969200Y+1676400D01*
X-4766000Y+1752600D02*
X-4613600Y+1752600D01*
X-4613600Y+1778000D01*
X-4639000Y+1803400D01*
X-4740600Y+1803400D01*
X-4766000Y+1778000D01*
X-4766000Y+1727200D01*
X-4740600Y+1701800D01*
X-4639000Y+1701800D01*
X-4410400Y+1778000D02*
X-4435800Y+1803400D01*
X-4537400Y+1803400D01*
X-4562800Y+1778000D01*
X-4562800Y+1727200D01*
X-4537400Y+1701800D01*
X-4435800Y+1701800D01*
X-4410400Y+1727200D01*
X-4334200Y+1854200D02*
X-4334200Y+1727200D01*
X-4308800Y+1701800D01*
X-4232600Y+1701800D01*
X-4207200Y+1727200D01*
X-4359600Y+1803400D02*
X-4232600Y+1803400D01*
X-4156400Y+1778000D02*
X-4131000Y+1803400D01*
X-4029400Y+1803400D01*
X-4004000Y+1778000D01*
X-4004000Y+1727200D01*
X-4029400Y+1701800D01*
X-4131000Y+1701800D01*
X-4156400Y+1727200D01*
X-4156400Y+1778000D01*
X-3597600Y+1701800D02*
X-3750000Y+1701800D01*
X-3750000Y+1854200D01*
X-3597600Y+1854200D01*
X-3750000Y+1778000D02*
X-3648400Y+1778000D01*
X-3546800Y+1701800D02*
X-3546800Y+1803400D01*
X-3546800Y+1778000D02*
X-3521400Y+1803400D01*
X-3470600Y+1752600D01*
X-3419800Y+1803400D01*
X-3394400Y+1778000D01*
X-3394400Y+1701800D01*
X-3343600Y+1778000D02*
X-3318200Y+1803400D01*
X-3216600Y+1803400D01*
X-3191200Y+1778000D01*
X-3191200Y+1727200D01*
X-3216600Y+1701800D01*
X-3318200Y+1701800D01*
X-3343600Y+1727200D01*
X-3343600Y+1701800D02*
X-3343600Y+1854200D01*
X-3140400Y+1752600D02*
X-2988000Y+1752600D01*
X-2988000Y+1778000D01*
X-3013400Y+1803400D01*
X-3115000Y+1803400D01*
X-3140400Y+1778000D01*
X-3140400Y+1727200D01*
X-3115000Y+1701800D01*
X-3013400Y+1701800D01*
X-2937200Y+1778000D02*
X-2911800Y+1803400D01*
X-2810200Y+1803400D01*
X-2784800Y+1778000D01*
X-2784800Y+1727200D01*
X-2810200Y+1701800D01*
X-2911800Y+1701800D01*
X-2937200Y+1727200D01*
X-2937200Y+1701800D02*
X-2937200Y+1854200D01*
X-2657800Y+1803400D02*
X-2657800Y+1701800D01*
X-2657800Y+1854200D02*
X-2657800Y+1854200D01*
X-2378400Y+1778000D02*
X-2403800Y+1803400D01*
X-2505400Y+1803400D01*
X-2530800Y+1778000D01*
X-2530800Y+1727200D01*
X-2505400Y+1701800D01*
X-2403800Y+1701800D01*
X-2378400Y+1727200D01*
X-2378400Y+1701800D02*
X-2378400Y+1854200D01*
X-2327600Y+1778000D02*
X-2302200Y+1803400D01*
X-2200600Y+1803400D01*
X-2175200Y+1778000D01*
X-2175200Y+1727200D01*
X-2200600Y+1701800D01*
X-2302200Y+1701800D01*
X-2327600Y+1727200D01*
X-2327600Y+1778000D01*
X-1997400Y+1803400D02*
X-2099000Y+1803400D01*
X-2124400Y+1778000D01*
X-2099000Y+1752600D01*
X-1997400Y+1752600D01*
X-1972000Y+1727200D01*
X-1997400Y+1701800D01*
X-2124400Y+1701800D01*
M02*
